<svg width="20" height="20" viewBox="0 0 20 20" fill="none" xmlns="http://www.w3.org/2000/svg">
<path d="M10 0C8.02219 0 6.08879 0.58649 4.4443 1.6853C2.79981 2.78412 1.51809 4.3459 0.761209 6.17316C0.00433284 8.00042 -0.1937 10.0111 0.192152 11.9509C0.578004 13.8907 1.53041 15.6725 2.92894 17.0711C4.32746 18.4696 6.10929 19.422 8.0491 19.8078C9.98891 20.1937 11.9996 19.9957 13.8268 19.2388C15.6541 18.4819 17.2159 17.2002 18.3147 15.5557C19.4135 13.9112 20 11.9778 20 10C20 8.68678 19.7413 7.38642 19.2388 6.17316C18.7362 4.95991 17.9997 3.85752 17.0711 2.92893C16.1425 2.00035 15.0401 1.26375 13.8268 0.761204C12.6136 0.258658 11.3132 0 10 0ZM10 18C8.41775 18 6.87103 17.5308 5.55544 16.6518C4.23985 15.7727 3.21447 14.5233 2.60897 13.0615C2.00347 11.5997 1.84504 9.99112 2.15372 8.43928C2.4624 6.88743 3.22433 5.46196 4.34315 4.34314C5.46197 3.22432 6.88743 2.4624 8.43928 2.15372C9.99113 1.84504 11.5997 2.00346 13.0615 2.60896C14.5233 3.21446 15.7727 4.23984 16.6518 5.55544C17.5308 6.87103 18 8.41775 18 10C18 12.1217 17.1571 14.1566 15.6569 15.6568C14.1566 17.1571 12.1217 18 10 18Z" fill="#707070"/>
<path d="M13.531 10.7059L9.53104 14.7059C9.34274 14.8942 9.08734 15 8.82104 15C8.55474 15 8.29934 14.8942 8.11104 14.7059C7.92274 14.5176 7.81695 14.2622 7.81695 13.9959C7.81695 13.7296 7.92274 13.4742 8.11104 13.2859L11.411 9.99591L8.11104 6.70591C7.92274 6.5176 7.81695 6.26221 7.81695 5.99591C7.81695 5.86405 7.84292 5.73348 7.89338 5.61166C7.94384 5.48984 8.0178 5.37915 8.11104 5.28591C8.20428 5.19267 8.31497 5.11871 8.43679 5.06825C8.55861 5.01779 8.68918 4.99182 8.82104 4.99182C9.08734 4.99182 9.34274 5.0976 9.53104 5.28591L13.531 9.28591C13.6248 9.37887 13.6992 9.48947 13.7499 9.61133C13.8007 9.73319 13.8268 9.86389 13.8268 9.99591C13.8268 10.1279 13.8007 10.2586 13.7499 10.3805C13.6992 10.5023 13.6248 10.6129 13.531 10.7059Z" fill="#707070"/>
</svg>
